PathFileType	3	(X/Y/Z)	feet_movements_1__view1_aligned.trc
DataRate	CameraRate	NumFrames	NumMarkers	Units	OrigDataRate	OrigDataStartFrame	OrigNumFrames
100.0	100.0	12	19	mm	100.0	401	1840
Frame#	Time	pelvis			neck			head			hip_left			hip_right			knee_left			knee_right			ankle_left			ankle_right			heel_left			heel_right			toe_left			toe_right			shoulder_left			shoulder_right			elbow_left			elbow_right			wrist_left			wrist_right			
		X1	Y1	Z1	X2	Y2	Z2	X3	Y3	Z3	X4	Y4	Z4	X5	Y5	Z5	X6	Y6	Z6	X7	Y7	Z7	X8	Y8	Z8	X9	Y9	Z9	X10	Y10	Z10	X11	Y11	Z11	X12	Y12	Z12	X13	Y13	Z13	X14	Y14	Z14	X15	Y15	Z15	X16	Y16	Z16	X17	Y17	Z17	X18	Y18	Z18	X19	Y19	Z19	
401	4.00000	116.386566	940.572730	383.123079	143.429074	1418.694061	626.885892	182.108397	1575.463513	558.812728	44.690044	969.310705	352.534191	188.083469	911.834739	413.711647	64.937662	1126.862925	-55.461495	255.529181	518.683543	235.117661	-65.731872	914.159431	-372.210765	143.482216	158.932119	382.390163	-86.523575	861.311715	-375.515943	121.394648	121.181806	425.174364	-35.110231	960.684692	-570.839081	190.068380	67.207908	216.923559	-41.434477	1382.855978	584.272110	313.813277	1344.077323	692.235267	-196.221310	1189.680130	417.871086	444.022683	1123.966208	541.433607	-255.806203	1082.356314	183.394987	548.495460	1092.656602	301.964343
402	4.01000	116.986434	940.867476	382.032142	143.874780	1418.170862	626.493571	182.613408	1575.043719	558.763514	45.312321	969.614953	351.419406	188.660849	912.119986	412.644619	64.373410	1127.137797	-56.441969	257.440853	519.506869	233.706499	-67.079542	917.764544	-374.749945	145.605346	159.455113	379.967475	-87.941172	865.018062	-378.293578	123.444890	121.693916	422.667870	-36.859994	965.049399	-573.230490	192.445866	67.570131	214.565344	-40.994071	1382.474570	583.409610	314.069150	1343.442463	692.110057	-194.935376	1189.005661	416.314451	443.789516	1122.867070	541.668575	-253.419513	1081.539590	181.388402	548.563690	1092.654208	302.142367
403	4.02000	117.586302	941.162221	380.941205	144.320485	1417.647662	626.101249	183.118418	1574.623924	558.714299	45.934599	969.919201	350.304622	189.238229	912.405232	411.577590	63.809158	1127.412669	-57.422444	259.352525	520.330195	232.295337	-68.427212	921.369658	-377.289125	147.728477	159.978106	377.544788	-89.358768	868.724408	-381.071212	125.495132	122.206026	420.161376	-38.609757	969.414107	-575.621899	194.823353	67.932354	212.207130	-40.553665	1382.093163	582.547110	314.325024	1342.807603	691.984847	-193.649443	1188.331192	414.757816	443.556349	1121.767933	541.903543	-251.032823	1080.722865	179.381818	548.631921	1092.651815	302.320392
404	4.03000	118.186170	941.456967	379.850268	144.766190	1417.124463	625.708927	183.623428	1574.204130	558.665085	46.556876	970.223449	349.189838	189.815609	912.690478	410.510562	63.244907	1127.687541	-58.402918	261.264196	521.153521	230.884176	-69.774883	924.974772	-379.828305	149.851607	160.501100	375.122100	-90.776365	872.430755	-383.848846	127.545373	122.718136	417.654882	-40.359521	973.778815	-578.013307	197.200840	68.294577	209.848915	-40.113259	1381.711755	581.684609	314.580897	1342.172744	691.859637	-192.363509	1187.656723	413.201181	443.323182	1120.668795	542.138511	-248.646133	1079.906141	177.375234	548.700151	1092.649421	302.498416
405	4.04000	118.786037	941.751712	378.759330	145.211895	1416.601264	625.316606	184.128438	1573.784335	558.615871	47.179154	970.527696	348.075053	190.392989	912.975725	409.443533	62.680655	1127.962413	-59.383392	263.175868	521.976847	229.473014	-71.122553	928.579885	-382.367485	151.974737	161.024093	372.699412	-92.193962	876.137102	-386.626480	129.595615	123.230246	415.148388	-42.109284	978.143523	-580.404716	199.578327	68.656800	207.490701	-39.672853	1381.330348	580.822109	314.836770	1341.537884	691.734427	-191.077576	1186.982254	411.644546	443.090015	1119.569657	542.373479	-246.259443	1079.089417	175.368650	548.768381	1092.647028	302.676440
406	4.05000	119.385905	942.046458	377.668393	145.657601	1416.078065	624.924284	184.633449	1573.364541	558.566656	47.801431	970.831944	346.960269	190.970369	913.260971	408.376505	62.116403	1128.237285	-60.363866	265.087540	522.800173	228.061852	-72.470223	932.184999	-384.906665	154.097867	161.547087	370.276725	-93.611558	879.843448	-389.404114	131.645857	123.742357	412.641894	-43.859048	982.508231	-582.796125	201.955813	69.019023	205.132486	-39.232447	1380.948940	579.959609	315.092644	1340.903025	691.609217	-189.791642	1186.307784	410.087911	442.856848	1118.470519	542.608447	-243.872753	1078.272692	173.362066	548.836612	1092.644634	302.854465
407	4.06000	119.985773	942.341203	376.577456	146.103306	1415.554866	624.531963	185.138459	1572.944746	558.517442	48.423709	971.136192	345.845485	191.547749	913.546218	407.309476	61.552151	1128.512157	-61.344340	266.999211	523.623499	226.650690	-73.817893	935.790112	-387.445845	156.220997	162.070081	367.854037	-95.029155	883.549795	-392.181749	133.696099	124.254467	410.135400	-45.608811	986.872938	-585.187533	204.333300	69.381247	202.774272	-38.792040	1380.567533	579.097108	315.348517	1340.268165	691.484007	-188.505709	1185.633315	408.531276	442.623681	1117.371382	542.843415	-241.486063	1077.455968	171.355482	548.904842	1092.642241	303.032489
408	4.07000	120.585641	942.635949	375.486518	146.549011	1415.031667	624.139641	185.643469	1572.524952	558.468227	49.045986	971.440439	344.730700	192.125129	913.831464	406.242448	60.987899	1128.787029	-62.324814	268.910883	524.446826	225.239528	-75.165564	939.395226	-389.985024	158.344127	162.593074	365.431349	-96.446752	887.256142	-394.959383	135.746341	124.766577	407.628906	-47.358574	991.237646	-587.578942	206.710787	69.743470	200.416057	-38.351634	1380.186125	578.234608	315.604391	1339.633305	691.358797	-187.219775	1184.958846	406.974641	442.390514	1116.272244	543.078383	-239.099373	1076.639244	169.348898	548.973072	1092.639848	303.210514
409	4.08000	121.185508	942.930695	374.395581	146.994717	1414.508468	623.747319	186.148480	1572.105157	558.419013	49.668264	971.744687	343.615916	192.702509	914.116710	405.175420	60.423648	1129.061901	-63.305288	270.822555	525.270152	223.828366	-76.513234	943.000340	-392.524204	160.467257	163.116068	363.008662	-97.864348	890.962489	-397.737017	137.796582	125.278687	405.122412	-49.108338	995.602354	-589.970351	209.088274	70.105693	198.057843	-37.911228	1379.804717	577.372107	315.860264	1338.998446	691.233587	-185.933842	1184.284377	405.418006	442.157347	1115.173106	543.313351	-236.712683	1075.822519	167.342314	549.041303	1092.637454	303.388538
410	4.09000	121.785376	943.225440	373.304644	147.440422	1413.985269	623.354998	186.653490	1571.685363	558.369799	50.290541	972.048935	342.501132	193.279889	914.401957	404.108391	59.859396	1129.336773	-64.285762	272.734226	526.093478	222.417205	-77.860904	946.605453	-395.063384	162.590388	163.639061	360.585974	-99.281945	894.668835	-400.514651	139.846824	125.790798	402.615918	-50.858101	999.967062	-592.361759	211.465760	70.467916	195.699628	-37.470822	1379.423310	576.509607	316.116137	1338.363586	691.108377	-184.647908	1183.609908	403.861371	441.924179	1114.073968	543.548319	-234.325993	1075.005795	165.335729	549.109533	1092.635061	303.566562
411	4.10000	122.385244	943.520186	372.213706	147.886127	1413.462069	622.962676	187.158500	1571.265568	558.320584	50.912818	972.353183	341.386347	193.857269	914.687203	403.041363	59.295144	1129.611645	-65.266236	274.645898	526.916804	221.006043	-79.208574	950.210567	-397.602564	164.713518	164.162055	358.163286	-100.699542	898.375182	-403.292286	141.897066	126.302908	400.109424	-52.607864	1004.331770	-594.753168	213.843247	70.830139	193.341414	-37.030416	1379.041902	575.647107	316.372011	1337.728727	690.983167	-183.361975	1182.935438	402.304736	441.691012	1112.974831	543.783287	-231.939303	1074.189070	163.329145	549.177763	1092.632667	303.744587
412	4.11000	122.646936	943.779128	371.421822	148.445672	1413.058852	622.437443	188.044984	1570.908602	558.168501	51.210853	972.650749	340.545365	194.082619	914.907522	402.298576	58.572071	1129.421142	-66.260404	276.257496	527.543431	219.991868	-79.634760	953.380647	-400.229827	166.270196	164.500581	356.373592	-101.027226	901.601731	-406.370048	143.367894	126.605925	398.225525	-53.478753	1009.229529	-596.839021	215.595628	71.226671	191.529832	-36.460176	1378.970483	574.873548	316.611495	1337.138068	690.746216	-182.893537	1182.950845	401.570871	441.475934	1112.026831	543.935780	-231.506115	1073.997543	162.553570	549.300162	1092.475017	303.935843
